<mxfile host="app.diagrams.net" modified="2021-12-08T04:09:00.673Z" agent="5.0 (Windows NT 10.0; Win64; x64) AppleWebKit/537.36 (KHTML, like Gecko) Chrome/96.0.4664.45 Safari/537.36" etag="u6DjUHBB_eyScMXkvHt5" version="15.9.1" type="github">
  <diagram id="TdMkjcrWkH4Zj7M8lxcI" name="Page-1">
    <mxGraphModel dx="1038" dy="547" grid="1" gridSize="10" guides="1" tooltips="1" connect="1" arrows="1" fold="1" page="1" pageScale="1" pageWidth="850" pageHeight="1100" math="0" shadow="0">
      <root>
        <mxCell id="0" />
        <mxCell id="1" parent="0" />
        <mxCell id="CRJY_KrRL_XC6SEyZD2S-1" value="" style="ellipse;html=1;shape=startState;fillColor=#000000;strokeColor=#ff0000;" vertex="1" parent="1">
          <mxGeometry x="385" y="70" width="30" height="30" as="geometry" />
        </mxCell>
        <mxCell id="CRJY_KrRL_XC6SEyZD2S-2" value="" style="edgeStyle=orthogonalEdgeStyle;html=1;verticalAlign=bottom;endArrow=open;endSize=8;strokeColor=#ff0000;rounded=0;entryX=0.5;entryY=0;entryDx=0;entryDy=0;" edge="1" source="CRJY_KrRL_XC6SEyZD2S-1" parent="1" target="CRJY_KrRL_XC6SEyZD2S-3">
          <mxGeometry relative="1" as="geometry">
            <mxPoint x="395" y="130" as="targetPoint" />
          </mxGeometry>
        </mxCell>
        <mxCell id="CRJY_KrRL_XC6SEyZD2S-3" value="Mua hàng" style="rounded=1;whiteSpace=wrap;html=1;arcSize=40;fontColor=#000000;fillColor=#ffffc0;strokeColor=#ff0000;" vertex="1" parent="1">
          <mxGeometry x="340" y="130" width="120" height="40" as="geometry" />
        </mxCell>
        <mxCell id="CRJY_KrRL_XC6SEyZD2S-4" value="" style="edgeStyle=orthogonalEdgeStyle;html=1;verticalAlign=bottom;endArrow=open;endSize=8;strokeColor=#ff0000;rounded=0;" edge="1" source="CRJY_KrRL_XC6SEyZD2S-3" parent="1">
          <mxGeometry relative="1" as="geometry">
            <mxPoint x="400" y="220" as="targetPoint" />
          </mxGeometry>
        </mxCell>
        <mxCell id="CRJY_KrRL_XC6SEyZD2S-5" value="Thanh toán" style="rhombus;whiteSpace=wrap;html=1;fillColor=#ffffc0;strokeColor=#ff0000;" vertex="1" parent="1">
          <mxGeometry x="360" y="220" width="80" height="40" as="geometry" />
        </mxCell>
        <mxCell id="CRJY_KrRL_XC6SEyZD2S-6" value="no" style="edgeStyle=orthogonalEdgeStyle;html=1;align=left;verticalAlign=bottom;endArrow=open;endSize=8;strokeColor=#ff0000;rounded=0;entryX=0;entryY=0.5;entryDx=0;entryDy=0;" edge="1" source="CRJY_KrRL_XC6SEyZD2S-5" parent="1" target="CRJY_KrRL_XC6SEyZD2S-8">
          <mxGeometry x="-1" relative="1" as="geometry">
            <mxPoint x="540" y="240" as="targetPoint" />
          </mxGeometry>
        </mxCell>
        <mxCell id="CRJY_KrRL_XC6SEyZD2S-7" value="yes" style="edgeStyle=orthogonalEdgeStyle;html=1;align=left;verticalAlign=top;endArrow=open;endSize=8;strokeColor=#ff0000;rounded=0;" edge="1" source="CRJY_KrRL_XC6SEyZD2S-5" parent="1">
          <mxGeometry x="-1" relative="1" as="geometry">
            <mxPoint x="400" y="320" as="targetPoint" />
          </mxGeometry>
        </mxCell>
        <mxCell id="CRJY_KrRL_XC6SEyZD2S-8" value="Hủy đơn hàng" style="rounded=1;whiteSpace=wrap;html=1;arcSize=40;fontColor=#000000;fillColor=#ffffc0;strokeColor=#ff0000;" vertex="1" parent="1">
          <mxGeometry x="700" y="220" width="120" height="40" as="geometry" />
        </mxCell>
        <mxCell id="CRJY_KrRL_XC6SEyZD2S-9" value="" style="edgeStyle=orthogonalEdgeStyle;html=1;verticalAlign=bottom;endArrow=open;endSize=8;strokeColor=#ff0000;rounded=0;entryX=1;entryY=0.5;entryDx=0;entryDy=0;" edge="1" source="CRJY_KrRL_XC6SEyZD2S-8" parent="1" target="CRJY_KrRL_XC6SEyZD2S-10">
          <mxGeometry relative="1" as="geometry">
            <mxPoint x="710" y="500" as="targetPoint" />
            <Array as="points">
              <mxPoint x="760" y="605" />
            </Array>
          </mxGeometry>
        </mxCell>
        <mxCell id="CRJY_KrRL_XC6SEyZD2S-10" value="" style="ellipse;html=1;shape=endState;fillColor=#000000;strokeColor=#ff0000;" vertex="1" parent="1">
          <mxGeometry x="585" y="590" width="30" height="30" as="geometry" />
        </mxCell>
        <mxCell id="CRJY_KrRL_XC6SEyZD2S-11" value="Có điểm thưởng" style="rhombus;whiteSpace=wrap;html=1;fillColor=#ffffc0;strokeColor=#ff0000;" vertex="1" parent="1">
          <mxGeometry x="340" y="320" width="120" height="60" as="geometry" />
        </mxCell>
        <mxCell id="CRJY_KrRL_XC6SEyZD2S-12" value="no" style="edgeStyle=orthogonalEdgeStyle;html=1;align=left;verticalAlign=bottom;endArrow=open;endSize=8;strokeColor=#ff0000;rounded=0;entryX=0;entryY=0.5;entryDx=0;entryDy=0;" edge="1" source="CRJY_KrRL_XC6SEyZD2S-11" parent="1" target="CRJY_KrRL_XC6SEyZD2S-16">
          <mxGeometry x="-1" relative="1" as="geometry">
            <mxPoint x="240" y="350" as="targetPoint" />
            <Array as="points">
              <mxPoint x="310" y="350" />
              <mxPoint x="310" y="430" />
            </Array>
          </mxGeometry>
        </mxCell>
        <mxCell id="CRJY_KrRL_XC6SEyZD2S-13" value="yes" style="edgeStyle=orthogonalEdgeStyle;html=1;align=left;verticalAlign=top;endArrow=open;endSize=8;strokeColor=#ff0000;rounded=0;entryX=0;entryY=0.5;entryDx=0;entryDy=0;" edge="1" source="CRJY_KrRL_XC6SEyZD2S-11" parent="1" target="CRJY_KrRL_XC6SEyZD2S-14">
          <mxGeometry x="-1" relative="1" as="geometry">
            <mxPoint x="400" y="430" as="targetPoint" />
          </mxGeometry>
        </mxCell>
        <mxCell id="CRJY_KrRL_XC6SEyZD2S-14" value="giảm giá đơn hàng và trừ điểm thưởng" style="rounded=1;whiteSpace=wrap;html=1;arcSize=40;fontColor=#000000;fillColor=#ffffc0;strokeColor=#ff0000;" vertex="1" parent="1">
          <mxGeometry x="540" y="330" width="120" height="40" as="geometry" />
        </mxCell>
        <mxCell id="CRJY_KrRL_XC6SEyZD2S-15" value="" style="edgeStyle=orthogonalEdgeStyle;html=1;verticalAlign=bottom;endArrow=open;endSize=8;strokeColor=#ff0000;rounded=0;entryX=0.5;entryY=0;entryDx=0;entryDy=0;" edge="1" source="CRJY_KrRL_XC6SEyZD2S-14" parent="1" target="CRJY_KrRL_XC6SEyZD2S-20">
          <mxGeometry relative="1" as="geometry">
            <mxPoint x="602" y="440" as="targetPoint" />
            <Array as="points">
              <mxPoint x="600" y="450" />
              <mxPoint x="600" y="450" />
            </Array>
          </mxGeometry>
        </mxCell>
        <mxCell id="CRJY_KrRL_XC6SEyZD2S-16" value="Tạo mã QR điểm thưởng mới dựa trên giá trị đơn hàng" style="rounded=1;whiteSpace=wrap;html=1;arcSize=40;fontColor=#000000;fillColor=#ffffc0;strokeColor=#ff0000;" vertex="1" parent="1">
          <mxGeometry x="335" y="410" width="120" height="40" as="geometry" />
        </mxCell>
        <mxCell id="CRJY_KrRL_XC6SEyZD2S-17" value="" style="edgeStyle=orthogonalEdgeStyle;html=1;verticalAlign=bottom;endArrow=open;endSize=8;strokeColor=#ff0000;rounded=0;entryX=0;entryY=0.5;entryDx=0;entryDy=0;" edge="1" source="CRJY_KrRL_XC6SEyZD2S-16" parent="1" target="CRJY_KrRL_XC6SEyZD2S-20">
          <mxGeometry relative="1" as="geometry">
            <mxPoint x="470" y="500" as="targetPoint" />
            <Array as="points">
              <mxPoint x="395" y="500" />
            </Array>
          </mxGeometry>
        </mxCell>
        <mxCell id="CRJY_KrRL_XC6SEyZD2S-20" value="Tạo hóa đơn" style="rounded=1;whiteSpace=wrap;html=1;arcSize=40;fontColor=#000000;fillColor=#ffffc0;strokeColor=#ff0000;" vertex="1" parent="1">
          <mxGeometry x="540" y="480" width="120" height="40" as="geometry" />
        </mxCell>
        <mxCell id="CRJY_KrRL_XC6SEyZD2S-21" value="" style="edgeStyle=orthogonalEdgeStyle;html=1;verticalAlign=bottom;endArrow=open;endSize=8;strokeColor=#ff0000;rounded=0;entryX=0.5;entryY=0;entryDx=0;entryDy=0;" edge="1" source="CRJY_KrRL_XC6SEyZD2S-20" parent="1" target="CRJY_KrRL_XC6SEyZD2S-10">
          <mxGeometry relative="1" as="geometry">
            <mxPoint x="600" y="570" as="targetPoint" />
            <Array as="points" />
          </mxGeometry>
        </mxCell>
      </root>
    </mxGraphModel>
  </diagram>
</mxfile>
